<svg width="70" height="70" viewBox="0 0 70 70" fill="none" xmlns="http://www.w3.org/2000/svg">
<path d="M69.3659 32.9311C68.982 32.772 68.5401 32.8599 68.2462 33.1537L65.169 36.2308V15.3086C65.169 14.741 64.709 14.2811 64.1416 14.2811H56.2473L59.1129 11.4155C59.1133 11.4151 59.1138 11.4145 59.1142 11.4141L61.8753 8.65294C62.4669 8.06136 62.7927 7.27441 62.7927 6.43769C62.7927 5.60097 62.4669 4.81428 61.8753 4.22243L58.6824 1.02949C58.0908 0.437908 57.3039 0.112106 56.4671 0.112106C55.6304 0.112106 54.8436 0.437908 54.2519 1.02949L51.4893 3.79204L48.1512 7.13017L41.0004 14.281H9.10822V4.11661C9.10822 3.54909 8.64816 3.08916 8.08078 3.08916C3.62511 3.08944 0 6.71427 0 11.1702V54.809C0 54.8849 0.00875002 54.9587 0.024336 55.0298C0.16625 56.9205 0.98424 58.6772 2.35129 60.0108C3.81255 61.4359 5.74152 62.2208 7.783 62.2208H39.1789L33.2659 68.1338C32.9721 68.4277 32.8842 68.8695 33.0432 69.2535C33.2022 69.6374 33.577 69.8877 33.9925 69.8877H68.9727C69.5401 69.8877 70.0001 69.4278 70.0001 68.8603V33.8803C70.0001 33.4648 69.7497 33.0901 69.3659 32.9311ZM55.7052 2.48268C56.1252 2.0624 56.8095 2.0624 57.2295 2.48268L60.4226 5.67575C60.8428 6.09589 60.8428 6.77989 60.4226 7.20017L58.3867 9.23619L53.6691 4.5187L55.7052 2.48268ZM52.216 5.97175L56.9335 10.6891L55.0483 12.5743L50.3311 7.85697L52.216 5.97175ZM67.9455 45.4252H66.0499C65.4824 45.4252 65.0225 45.8851 65.0225 46.4526C65.0225 47.0201 65.4824 47.4801 66.0499 47.4801H67.9455V50.5762H66.0499C65.4824 50.5762 65.0225 51.0361 65.0225 51.6036C65.0225 52.1712 65.4824 52.6311 66.0499 52.6311H67.9455V55.7271H66.0499C65.4824 55.7271 65.0225 56.187 65.0225 56.7545C65.0225 57.322 65.4824 57.782 66.0499 57.782H67.9455V60.8781H66.0499C65.4824 60.8781 65.0225 61.3382 65.0225 61.9055C65.0225 62.4731 65.4824 62.933 66.0499 62.933H67.9455V67.8333H36.4728L46.8509 57.4553C47.2521 57.0539 47.2521 56.4036 46.8509 56.0023C46.8048 55.9562 46.7553 55.9163 46.7035 55.8807C46.3035 55.6068 45.753 55.6471 45.3977 56.0023L41.2338 60.1662H7.78314C4.66704 60.1662 2.15852 57.7334 2.05981 54.6229C2.06569 54.4277 2.08086 54.2341 2.1052 54.0427C2.10534 54.0416 2.10547 54.0405 2.10561 54.0394C2.11709 53.9485 2.1309 53.858 2.14663 53.768C2.1484 53.7578 2.15032 53.7475 2.15209 53.7373C2.16645 53.657 2.18258 53.5772 2.20022 53.4976C2.20514 53.4755 2.21034 53.4533 2.21553 53.4313C2.23112 53.364 2.24793 53.2972 2.26598 53.2306C2.27583 53.1945 2.28608 53.1588 2.29661 53.1229C2.31165 53.0706 2.32723 53.0185 2.34377 52.967C2.36032 52.9155 2.37795 52.8645 2.39586 52.8135C2.40831 52.7778 2.42061 52.7421 2.43401 52.7067C2.45903 52.6394 2.48555 52.5728 2.5129 52.5068C2.52069 52.4878 2.52835 52.4685 2.53641 52.4495C2.57155 52.3675 2.60805 52.2864 2.64661 52.2063C2.64825 52.2029 2.64975 52.1995 2.65139 52.196C3.45503 50.533 5.00064 49.2931 6.8555 48.9084C6.8607 48.9073 6.86589 48.906 6.87109 48.9049C6.95613 48.8876 7.04199 48.8727 7.12839 48.8589C7.14275 48.8565 7.1571 48.8537 7.17173 48.8515C7.2498 48.8396 7.32869 48.8303 7.40757 48.8214C7.42972 48.8189 7.45173 48.8155 7.47402 48.8133C7.55017 48.8057 7.62701 48.8006 7.70384 48.7958C7.72818 48.7943 7.75252 48.7917 7.77685 48.7905C7.87748 48.7854 7.97892 48.7828 8.08078 48.7828C8.64816 48.7828 9.10822 48.3229 9.10822 47.7554V40.3057C9.10822 39.7382 8.64816 39.2783 8.08078 39.2783C7.51339 39.2783 7.05333 39.7382 7.05333 40.3057V46.7926C5.31837 47.0121 3.70796 47.7859 2.43811 49.0259C2.30454 49.1564 2.17793 49.292 2.05461 49.4298V11.1702C2.05461 8.19781 4.21833 5.72087 7.0532 5.23169V15.3086V36.1961V36.1962C7.0532 36.7636 7.51326 37.2237 8.08064 37.2237C8.64803 37.2237 9.10809 36.7636 9.10809 36.1962V36.1961V16.336H38.9456L33.2658 22.0159C32.8645 22.4173 32.8645 23.0676 33.2658 23.4689C33.6671 23.87 34.3176 23.87 34.7187 23.4689L42.1525 16.0351C42.1528 16.0348 42.1529 16.0345 42.1532 16.0344L48.8777 9.30988L53.595 14.0274L53.0415 14.5808C53.0411 14.5812 53.0406 14.5816 53.0401 14.582L32.3234 35.2991L27.606 30.5817L31.6896 26.4982C32.0908 26.0968 32.0908 25.4464 31.6896 25.0451C31.2883 24.644 30.6378 24.644 30.2366 25.0451L25.4265 29.8552C25.4008 29.8809 25.3767 29.9081 25.3541 29.936C25.3466 29.9453 25.3399 29.9553 25.3328 29.965C25.3183 29.9843 25.3041 30.0037 25.2908 30.0239C25.2833 30.0357 25.2765 30.0477 25.2694 30.0599C25.258 30.079 25.2471 30.0984 25.2371 30.1182C25.2305 30.1311 25.2247 30.1441 25.2186 30.1575C25.2095 30.1776 25.201 30.1981 25.1932 30.2186C25.1905 30.2258 25.1869 30.2327 25.1843 30.2399L23.1826 35.9103L21.8179 39.7766C21.7999 39.828 21.7869 39.8802 21.7772 39.9329H18.3603C17.7929 39.9329 17.3328 40.3928 17.3328 40.9603C17.3328 41.5279 17.7929 41.9878 18.3603 41.9878H46.8134C47.3809 41.9878 47.8409 41.5279 47.8409 40.9603C47.8409 40.3928 47.3809 39.9329 46.8134 39.9329H26.3995L32.6653 37.721C32.6705 37.7191 32.6754 37.7165 32.6806 37.7146C32.705 37.7056 32.7289 37.6955 32.7525 37.6847C32.762 37.6803 32.7714 37.6762 32.7806 37.6717C32.8052 37.6594 32.8294 37.6459 32.8532 37.6314C32.8608 37.6267 32.8688 37.6225 32.8763 37.6177C32.901 37.6018 32.9251 37.5845 32.9487 37.5661C32.9546 37.5616 32.9608 37.5577 32.9665 37.553C32.9951 37.5301 33.0231 37.5053 33.0496 37.4788L54.1924 16.3361H63.114V38.2858L48.4173 52.9827C48.016 53.3841 48.016 54.0345 48.4173 54.4358C48.4423 54.4608 48.4684 54.4843 48.4953 54.5063C48.6837 54.6599 48.9138 54.7367 49.1438 54.7367C49.3738 54.7367 49.604 54.6599 49.7923 54.5063C49.8192 54.4844 49.8453 54.4608 49.8703 54.4358C49.8707 54.4354 49.8703 54.4358 49.8707 54.4354L67.9455 36.3604V45.4252ZM30.4442 36.3257L27.5012 37.3646L25.5403 35.4038L26.5793 32.4608L30.4442 36.3257Z" fill="black"/>
</svg>
