<svg width="64" height="70" viewBox="0 0 64 70" fill="none" xmlns="http://www.w3.org/2000/svg">
<path d="M18.4894 32.557C15.3797 31.7238 11.162 31.7658 9.51018 34.6268C9.46138 34.7113 9.42173 34.8009 9.39193 34.894L0.668465 62.1676C0.665184 62.178 0.66327 62.1884 0.660263 62.1987C0.657255 62.2095 0.653017 62.2195 0.650146 62.2303C0.646865 62.2424 0.645361 62.2545 0.642216 62.2666C0.636885 62.2888 0.631963 62.3109 0.627861 62.3331C-0.063776 65.3283 4.11394 68.1121 8.65558 69.3291C10.3072 69.7717 11.9509 70 13.4294 70C13.9978 70 14.542 69.9662 15.0524 69.898C18.0831 69.4925 18.913 68.0237 19.1379 67.1841C19.1548 67.1209 19.1703 67.0523 19.1839 66.9797L25.2356 39.1391C25.2562 39.0437 25.2668 38.9463 25.2668 38.8487C25.2666 35.5451 21.6158 33.3946 18.4894 32.557ZM14.6899 67.1878C13.2227 67.3841 11.2812 67.202 9.36322 66.6881C7.44539 66.1742 5.67289 65.3611 4.50029 64.4576C3.51376 63.6973 3.25893 63.1104 3.2901 62.9466L3.29789 62.922C3.36707 62.76 3.88398 62.3891 5.09801 62.2267C6.56509 62.0302 8.5067 62.2125 10.4245 62.7264C12.3424 63.2403 14.1149 64.0533 15.2875 64.9569C16.2574 65.7044 16.5198 66.284 16.4987 66.459L16.4933 66.4843C16.4385 66.6419 15.9243 67.0226 14.6899 67.1878ZM17.2457 63.0235C17.1531 62.9464 17.0578 62.8688 16.9567 62.7911C15.4876 61.6589 13.4193 60.698 11.1324 60.0852C8.79325 59.4584 6.33035 59.2407 4.36768 59.5773L11.944 35.8901C12.7144 34.7819 15.1309 34.4879 17.7817 35.198C20.4092 35.902 22.4099 37.4002 22.5269 38.7269L17.2457 63.0235Z" fill="black"/>
<path d="M16.8725 9.7942L21.2732 18.2472C21.6218 18.9169 22.4474 19.1772 23.1172 18.8286C23.787 18.4799 24.0473 17.6543 23.6985 16.9846L19.3789 8.68736C19.151 7.37573 20.6952 5.41224 23.0495 4.05316C25.4249 2.68165 27.8336 2.34 28.8656 3.20909L43.698 26.4929C43.5725 26.5041 43.445 26.5172 43.3125 26.5343C41.4731 26.7726 39.3311 27.5557 37.2809 28.7394C35.2308 29.923 33.4814 31.3866 32.3554 32.8605C32.2743 32.9666 32.1993 33.0706 32.1268 33.1737L29.3813 27.9002C29.0326 27.2305 28.2068 26.9702 27.5373 27.3189C26.8676 27.6675 26.6073 28.4932 26.956 29.1629L31.2956 37.4984C31.3253 37.5591 31.3555 37.6161 31.3857 37.6685C31.7616 38.3199 32.6973 39.3092 34.9079 39.3092C35.2516 39.3092 35.6263 39.2852 36.0342 39.2323C37.8737 38.9942 40.0158 38.2111 42.0659 37.0274C46.1366 34.6771 49.4508 30.9085 48.0107 28.1943C48.0011 28.1742 47.9907 28.1545 47.9801 28.1347C47.9734 28.1227 47.9683 28.1104 47.9613 28.0985C47.9311 28.0461 47.8968 27.9914 47.8589 27.9354L31.0779 1.59285C31.0245 1.50891 30.962 1.43098 30.8916 1.36058C28.5556 -0.975459 24.4707 0.0755999 21.6825 1.68527C18.8795 3.30356 15.9096 6.32563 16.7646 9.51681C16.7905 9.61292 16.8266 9.70602 16.8725 9.7942ZM44.8185 31.2462C43.9199 32.4225 42.4182 33.6666 40.6987 34.6592C38.9792 35.6519 37.1511 36.3304 35.6829 36.5206C34.4441 36.681 33.8493 36.4446 33.7578 36.3066L33.7482 36.2883C33.6796 36.1306 33.7791 35.5006 34.5281 34.5203C35.4268 33.344 36.9285 32.0999 38.6481 31.1073C40.3675 30.1146 42.1957 29.4361 43.6639 29.2459C43.9575 29.2079 44.2151 29.1922 44.4383 29.1922C45.1307 29.1922 45.4931 29.3432 45.5807 29.4482L45.5962 29.4724C45.6693 29.6213 45.5761 30.2547 44.8185 31.2462Z" fill="black"/>
<path d="M61.7484 41.5481C60.1386 38.7597 57.1262 35.8071 53.9353 36.6621C53.841 36.6874 53.7497 36.7227 53.6629 36.7674L28.209 49.8844C28.2 49.8891 28.1919 49.8947 28.183 49.8996C28.1726 49.9053 28.162 49.9097 28.1517 49.9157C28.1402 49.9224 28.13 49.9302 28.1186 49.937C28.1003 49.9482 28.0823 49.9597 28.0648 49.9718C25.456 51.5998 26.4416 56.5234 28.7929 60.5961C29.9766 62.6464 31.4402 64.3957 32.914 65.5216C34.2753 66.5616 35.3839 66.877 36.2281 66.877C36.8909 66.877 37.3909 66.6826 37.7218 66.4915C37.7344 66.4842 37.7456 66.4756 37.7582 66.4681C37.7646 66.4641 37.7713 66.4615 37.7776 66.4574L61.8641 50.9724C61.9462 50.9196 62.0224 50.8582 62.0914 50.7892C64.4275 48.4531 63.3666 44.351 61.7484 41.5481ZM31.1607 59.229C30.168 57.5094 29.4895 55.6812 29.2993 54.2132C29.1395 52.9788 29.3738 52.3835 29.5117 52.2892L29.5357 52.2769C29.7001 52.2118 30.3275 52.316 31.2996 53.0584C32.4758 53.9571 33.7199 55.4588 34.7126 57.1782C35.7054 58.8978 36.3838 60.726 36.574 62.194C36.7312 63.4083 36.5071 64.0037 36.3684 64.1127L36.3465 64.1267C36.1957 64.1992 35.5633 64.1049 34.5737 63.3488C33.3976 62.4501 32.1535 60.9484 31.1607 59.229ZM60.2403 48.7655L39.3221 62.2137C39.1393 60.2308 38.2914 57.9082 37.0806 55.811C35.8698 53.7138 34.2824 51.8182 32.6566 50.6685L54.7631 39.2763C56.0902 39.0381 58.008 40.5382 59.3804 42.9151C60.7403 45.2708 61.0955 47.7448 60.2403 48.7655Z" fill="#C67934"/>
<path d="M25.3275 21.7068H25.3266C24.5715 21.7068 23.9599 22.3189 23.9599 23.074C23.9599 23.8291 24.5724 24.4412 25.3275 24.4412C26.0826 24.4412 26.6947 23.8291 26.6947 23.074C26.6947 22.3189 26.0825 21.7068 25.3275 21.7068Z" fill="black"/>
</svg>
