<svg width="40" height="41" viewBox="0 0 40 41" fill="none" xmlns="http://www.w3.org/2000/svg">
<g clip-path="url(#clip0)">
<path d="M18.4574 27.1833C18.7628 26.8772 18.7628 26.3819 18.4574 26.0758C18.1516 25.7706 17.6562 25.7706 17.3502 26.0758C17.045 26.3819 17.045 26.8772 17.3502 27.1833C17.6562 27.4885 18.1516 27.4885 18.4574 27.1833Z" fill="black"/>
<path d="M14.7514 8.60812C14.7514 13.3546 18.613 17.2165 23.3595 17.2165C28.106 17.2165 31.9677 13.3546 31.9677 8.60812C31.9677 3.86161 28.106 0 23.3595 0C18.613 0 14.7514 3.86161 14.7514 8.60812ZM30.4027 8.60812C30.4027 12.4917 27.2432 15.6513 23.3595 15.6513C19.4759 15.6513 16.3164 12.4917 16.3164 8.60812C16.3164 4.7248 19.4759 1.56525 23.3595 1.56525C27.2432 1.56525 30.4027 4.7248 30.4027 8.60812Z" fill="#C67934"/>
<path d="M9.05301 39.8468C9.35634 40.1525 9.85016 40.1559 10.1575 39.8532L13.9515 36.1154C14.5961 35.4709 14.7921 34.5165 14.5086 33.687L15.3247 32.8999C15.7641 32.4755 16.3426 32.2416 16.9542 32.2416H27.3575C29.2031 32.2416 30.9476 31.5328 32.2701 30.2458C32.3245 30.1929 31.857 30.7436 39.3673 21.7673C40.4813 20.4495 40.3146 18.4705 38.9955 17.3553C37.6847 16.2506 35.721 16.4093 34.604 17.7045L29.9862 22.4507C29.4031 21.7331 28.5139 21.2857 27.5532 21.2857H18.8267C17.585 20.7662 16.2674 20.5033 14.908 20.5033C11.1396 20.5033 7.84919 22.2437 6.08335 25.5069C5.3394 25.366 4.55479 25.591 3.99033 26.1555L0.267544 29.8893C-0.0363944 30.1941 -0.0370059 30.6873 0.266321 30.9931L9.05301 39.8468ZM14.9076 22.0682C16.1063 22.0682 17.2652 22.3095 18.3528 22.7853C18.4519 22.8287 18.5586 22.851 18.6665 22.851H27.5532C28.4017 22.851 29.1184 23.543 29.1184 24.4159C29.1184 25.2791 28.4164 25.9812 27.5532 25.9812H21.1684C20.7363 25.9812 20.3859 26.3316 20.3859 26.7637C20.3859 27.196 20.7363 27.5461 21.1684 27.5461H27.5532C29.2793 27.5461 30.6834 26.142 30.6834 24.4159C30.6834 24.2783 30.6736 24.142 30.6559 24.0068C35.1229 19.415 35.7528 18.7698 35.7797 18.7377C36.3374 18.0794 37.3275 17.9959 37.9862 18.5512C38.6454 19.1086 38.7289 20.0981 38.1696 20.7601L31.1506 29.1511C30.1257 30.1351 28.78 30.6766 27.3575 30.6766H16.9542C15.9347 30.6766 14.9697 31.0665 14.2377 31.7738L13.5726 32.4156L7.4419 26.2851C8.87475 23.5971 11.5634 22.0682 14.9076 22.0682ZM5.09784 27.2615C5.35591 27.0034 5.75219 26.9569 6.06683 27.1514C6.20229 27.2339 5.81335 26.8799 12.8449 33.9016C13.1577 34.2144 13.1409 34.7128 12.8492 35.0046L9.61472 38.191L1.92545 30.443L5.09784 27.2615Z" fill="black"/>
<path d="M22.4205 3.91291V4.82992C21.5096 5.15282 20.8552 6.02274 20.8552 7.0431C20.8552 8.33744 21.9083 9.39083 23.203 9.39083C23.6344 9.39083 23.9855 9.74186 23.9855 10.1733C23.9855 10.6047 23.6344 10.9558 23.203 10.9558C22.8688 10.9558 22.5076 10.7457 22.1869 10.3638C21.9086 10.033 21.4151 9.99045 21.0843 10.2684C20.7534 10.5467 20.7106 11.0402 20.9889 11.371C21.4072 11.8685 21.8992 12.2153 22.4205 12.3902V13.3035C22.4205 13.7359 22.7709 14.086 23.203 14.086C23.635 14.086 23.9855 13.7359 23.9855 13.3035V12.3865C24.8963 12.0633 25.5507 11.1934 25.5507 10.1733C25.5507 8.87866 24.4976 7.82558 23.203 7.82558C22.7715 7.82558 22.4205 7.47455 22.4205 7.0431C22.4205 6.61166 22.7715 6.26032 23.203 6.26032C23.4803 6.26032 23.7729 6.4019 24.0494 6.66945C24.36 6.97002 24.8554 6.96177 25.156 6.65141C25.4565 6.34074 25.4483 5.84539 25.1379 5.54482C24.7407 5.16046 24.3432 4.94306 23.9855 4.82442V3.91291C23.9855 3.48054 23.635 3.13013 23.203 3.13013C22.7709 3.13013 22.4205 3.48054 22.4205 3.91291Z" fill="#C67934"/>
</g>
<defs>
<clipPath id="clip0">
<rect width="40" height="40.0783" fill="white"/>
</clipPath>
</defs>
</svg>
