<svg width="40" height="40" viewBox="0 0 40 40" fill="none" xmlns="http://www.w3.org/2000/svg">
<path d="M20.0304 8.62158C14.369 8.62158 9.74367 13.2469 9.74367 18.9084C9.74367 21.8686 11.0388 24.7178 13.2219 26.6419C14.85 28.2701 14.702 31.7483 14.665 31.7853C14.665 31.9703 14.702 32.1183 14.85 32.2664C14.9611 32.3774 15.1461 32.4514 15.2941 32.4514H24.7298C24.9148 32.4514 25.0628 32.3774 25.1738 32.2664C25.2848 32.1553 25.3588 31.9703 25.3588 31.7853C25.3588 31.7483 25.1738 28.2701 26.8019 26.6419C26.8389 26.6049 26.8759 26.5679 26.9129 26.5309C29.0591 24.5698 30.3172 21.7946 30.3172 18.9084C30.3172 13.2469 25.6919 8.62158 20.0304 8.62158ZM25.9509 25.6799C25.9139 25.7169 25.8399 25.7909 25.8399 25.8279C24.3968 27.382 24.1377 29.9352 24.1007 31.1563H15.9231C15.8861 29.9352 15.6271 27.271 14.073 25.6799C12.1118 23.9777 10.9648 21.4985 10.9648 18.8714C10.9648 13.876 14.9981 9.84267 19.9934 9.84267C24.9888 9.84267 29.0221 13.876 29.0221 18.8714C29.0221 21.4985 27.912 23.9777 25.9509 25.6799Z" fill="#231F20"/>
<path d="M19.9934 11.2488C19.6604 11.2488 19.3644 11.5448 19.3644 11.8778C19.3644 12.2109 19.6604 12.5069 19.9934 12.5069C23.7307 12.5069 26.7279 15.5411 26.7279 19.2414C26.7279 19.5744 27.024 19.8704 27.357 19.8704C27.69 19.8704 27.986 19.5744 27.986 19.2414C28.023 14.838 24.4338 11.2488 19.9934 11.2488Z" fill="#C67934"/>
<path d="M24.1007 33.1545H15.8861C15.0351 33.1545 14.332 33.8576 14.332 34.7087C14.332 35.5597 15.0351 36.2628 15.8861 36.2628H24.0637C24.9518 36.2258 25.6549 35.5597 25.6549 34.7087C25.6549 33.8576 24.9518 33.1545 24.1007 33.1545ZM24.1007 34.9677H15.8861C15.7381 34.9677 15.5901 34.8567 15.5901 34.6717C15.5901 34.4866 15.7011 34.3756 15.8861 34.3756H24.0637C24.2117 34.3756 24.3598 34.4866 24.3598 34.6717C24.3598 34.8567 24.2487 34.9677 24.1007 34.9677Z" fill="#C67934"/>
<path d="M22.8797 36.8916H17.1072C16.2562 36.8916 15.5531 37.5947 15.5531 38.4457C15.5531 39.2968 16.2562 39.9998 17.1072 39.9998H22.8797C23.7307 39.9998 24.4338 39.2968 24.4338 38.4457C24.4338 37.5577 23.7307 36.8916 22.8797 36.8916ZM22.8797 38.7047H17.1072C16.9592 38.7047 16.8112 38.5937 16.8112 38.4087C16.8112 38.2237 16.9222 38.1127 17.1072 38.1127H22.8797C23.0277 38.1127 23.1757 38.2237 23.1757 38.4087C23.1757 38.5937 23.0277 38.7047 22.8797 38.7047Z" fill="#C67934"/>
<path d="M19.9934 5.55042C20.3635 5.55042 20.6225 5.2544 20.6225 4.92137V0.629048C20.6225 0.296022 20.3265 0 19.9934 0C19.6604 0 19.3644 0.296022 19.3644 0.629048V4.92137C19.3644 5.2544 19.6604 5.55042 19.9934 5.55042Z" fill="#231F20"/>
<path d="M30.4652 3.18227C30.1692 2.96025 29.7992 3.07126 29.6141 3.33028L27.246 6.88255C27.024 7.17857 27.098 7.5856 27.394 7.77062C27.505 7.84462 27.616 7.88162 27.727 7.88162C27.949 7.88162 28.134 7.77062 28.245 7.5856L30.6132 4.03334C30.8352 3.77432 30.7612 3.36729 30.4652 3.18227Z" fill="#231F20"/>
<path d="M12.4819 7.7336C12.5929 7.7336 12.7039 7.6966 12.8149 7.62259C13.1109 7.43758 13.1849 7.03055 12.9999 6.73453L10.7057 3.14526C10.5207 2.84923 10.1137 2.77523 9.81767 2.96024C9.52164 3.14526 9.44764 3.55229 9.63265 3.84831L11.9268 7.43758C12.0748 7.6596 12.2598 7.7336 12.4819 7.7336Z" fill="#231F20"/>
<path d="M8.00453 11.6559L4.26725 9.62069C3.97123 9.47268 3.5642 9.58369 3.41618 9.87971C3.23117 10.1757 3.34218 10.5828 3.6752 10.7308L7.41248 12.7659C7.52349 12.8029 7.5975 12.8399 7.70851 12.8399C7.93052 12.8399 8.15254 12.7289 8.26355 12.5069C8.41156 12.2109 8.30055 11.8039 8.00453 11.6559Z" fill="#231F20"/>
<path d="M36.6077 9.87971C36.4597 9.58369 36.0526 9.47268 35.7566 9.62069L31.9823 11.6559C31.6863 11.8039 31.5753 12.2109 31.7233 12.5069C31.8343 12.7289 32.0563 12.8399 32.2783 12.8399C32.3893 12.8399 32.5004 12.8029 32.5744 12.7659L36.3486 10.7308C36.6447 10.5828 36.7557 10.1757 36.6077 9.87971Z" fill="#231F20"/>
</svg>
