<svg width="52" height="50" viewBox="0 0 52 50" fill="none" xmlns="http://www.w3.org/2000/svg">
<path d="M25.9811 9.11133C24.6069 9.11133 23.2841 9.52323 22.1561 10.3025C21.8226 10.5329 21.7383 10.991 21.9678 11.3257C22.1974 11.6605 22.6537 11.745 22.9872 11.5148C23.8697 10.9051 24.9049 10.5829 25.9811 10.5829C28.8975 10.5829 31.27 12.9644 31.27 15.8918C31.27 18.8192 28.8975 21.2008 25.9811 21.2008C23.0648 21.2008 20.6922 18.8192 20.6922 15.8918C20.6922 15.0282 20.892 14.205 21.2859 13.4451C21.4727 13.0846 21.3332 12.6403 20.974 12.4528C20.6148 12.2654 20.1725 12.4054 19.9855 12.7659C19.4889 13.7241 19.2263 14.805 19.2263 15.8918C19.2264 19.6307 22.2566 22.6724 25.9811 22.6724C29.7057 22.6724 32.7358 19.6307 32.7358 15.8918C32.7358 12.153 29.7057 9.11133 25.9811 9.11133Z" fill="#C67934"/>
<path d="M51.0172 48.9815L43.7833 31.5338C43.6696 31.2595 43.4027 31.0808 43.1067 31.0808H35.8979C37.3001 29.1767 38.4671 27.2801 39.3786 25.4179C40.9939 22.1177 41.8128 18.9127 41.8128 15.8918C41.8127 7.129 34.7109 0 25.9815 0C17.2522 0 10.1504 7.129 10.1504 15.8917C10.1504 18.9126 10.9693 22.1177 12.5846 25.4178C13.4959 27.28 14.663 29.1767 16.0652 31.0807H8.85648C8.56048 31.0807 8.29348 31.2595 8.17988 31.5337L3.25049 43.423C3.09494 43.7981 3.27176 44.2288 3.6455 44.3849C3.73763 44.4233 3.8329 44.4416 3.9268 44.4416C4.21398 44.4416 4.48657 44.2711 4.60369 43.9884L5.30705 42.2919H10.2966L7.71098 48.5284H2.72151L3.47103 46.7205C3.62658 46.3453 3.44976 45.9146 3.07603 45.7586C2.7021 45.6022 2.27318 45.78 2.11773 46.1551L0.945956 48.9815C0.851764 49.2086 0.876856 49.468 1.0129 49.6725C1.14875 49.8771 1.37752 50 1.62256 50H50.3405C50.5855 50 50.8143 49.8771 50.9503 49.6725C51.0862 49.468 51.1114 49.2086 51.0172 48.9815ZM11.6163 15.8917C11.6163 7.94033 18.0605 1.47148 25.9815 1.47148C33.9025 1.47148 40.3468 7.94043 40.3468 15.8917C40.3468 19.226 39.1926 24.5541 33.8537 31.3439C33.8483 31.3503 33.8435 31.357 33.8384 31.3636C33.5658 31.71 33.2825 32.0601 32.9876 32.4141C30.0538 35.9357 27.0849 38.5073 25.9814 39.421C24.8812 38.5104 21.9263 35.9518 18.9946 32.4368C18.6923 32.0744 18.4024 31.7161 18.1233 31.3616C18.1188 31.356 18.1146 31.3501 18.1099 31.3445C12.7712 24.5552 11.6163 19.2272 11.6163 15.8917ZM9.34529 32.5522H14.335L12.515 36.9417H7.52543L9.34529 32.5522ZM13.6313 48.5285L18.2126 37.4789L31.2501 48.5285H13.6313ZM33.5223 48.5285L18.3935 35.7062C18.2149 35.5548 17.975 35.498 17.7481 35.5533C17.5211 35.6085 17.3337 35.7691 17.2441 35.9856L12.0436 48.5284H9.29883L12.0723 41.8388C12.1665 41.6117 12.1414 41.3524 12.0053 41.1479C11.8695 40.9433 11.6406 40.8203 11.3956 40.8203H5.91739L6.91539 38.4131H13.0039C13.2999 38.4131 13.5669 38.2343 13.6805 37.9601L15.9227 32.5522H17.1947C17.4156 32.8285 17.64 33.105 17.8705 33.3813C21.6524 37.9155 25.3763 40.8266 25.533 40.9483C25.6651 41.051 25.8233 41.1021 25.9815 41.1021C26.1397 41.1021 26.298 41.0509 26.4301 40.9483C26.5162 40.8814 27.6804 39.9709 29.3385 38.4132H37.6385C38.0433 38.4132 38.3715 38.0838 38.3715 37.6774C38.3715 37.2711 38.0433 36.9417 37.6385 36.9417H30.8491C31.8653 35.916 32.976 34.7201 34.0927 33.3814C34.3231 33.1051 34.5477 32.8287 34.7684 32.5522H42.6178L44.4376 36.9417H40.5702C40.1654 36.9417 39.8373 37.2711 39.8373 37.6774C39.8373 38.0838 40.1653 38.4132 40.5702 38.4132H45.0477L46.0457 40.8204H30.9444C30.6385 40.8204 30.3649 41.011 30.2577 41.2987C30.1508 41.5864 30.233 41.9105 30.464 42.1118L37.8282 48.5285H33.5223ZM40.0645 48.5285L32.907 42.292H46.6559L49.2417 48.5285H40.0645Z" fill="white"/>
</svg>
