<svg width="70" height="70" viewBox="0 0 70 70" fill="none" xmlns="http://www.w3.org/2000/svg">
<path d="M68.9746 18.457H38.9379C38.4029 8.18918 29.8811 0 19.4824 0C8.73975 0 0 8.73975 0 19.4824V50.5176C0 61.2603 8.73975 70 19.4824 70H68.9746C69.541 70 70 69.5409 70 68.9746V19.4824C70 18.9161 69.541 18.457 68.9746 18.457ZM2.05078 19.4824C2.05078 9.87055 9.87055 2.05078 19.4824 2.05078C29.0943 2.05078 36.9141 9.87055 36.9141 19.4824V41.824C33.7139 35.4334 27.1027 31.0352 19.4824 31.0352C11.8621 31.0352 5.25096 35.4334 2.05078 41.824V19.4824ZM2.05078 50.5176C2.05078 40.9057 9.87055 33.0859 19.4824 33.0859C29.0943 33.0859 36.9141 40.9057 36.9141 50.5176C36.9141 60.1295 29.0943 67.9492 19.4824 67.9492C9.87055 67.9492 2.05078 60.1295 2.05078 50.5176ZM28.176 67.9492C34.5666 64.749 38.9648 58.1379 38.9648 50.5176V20.5078H63.8477V44.3652C63.8477 47.1923 61.5478 49.4922 58.7207 49.4922H46.416C45.8496 49.4922 45.3906 49.9513 45.3906 50.5176V62.8223C45.3906 65.6493 43.0907 67.9492 40.2637 67.9492H28.176ZM58.7953 51.5411L47.4395 62.8969C47.4398 62.8719 47.4414 62.8473 47.4414 62.8223V51.543H58.7207C58.7457 51.543 58.7703 51.5413 58.7953 51.5411ZM67.9492 67.9492H45.2802C45.2987 67.931 45.3183 67.9137 45.3368 67.8953C45.3391 67.8977 63.7938 49.4383 63.7938 49.4383C65.0934 48.1385 65.8984 46.3441 65.8984 44.3652V20.5078H67.9492V67.9492Z" fill="black"/>
<path d="M19.4824 61.7969C25.7019 61.7969 30.7617 56.7371 30.7617 50.5176C30.7617 44.2981 25.7019 39.2383 19.4824 39.2383C13.2629 39.2383 8.20312 44.2981 8.20312 50.5176C8.20312 56.7371 13.2629 61.7969 19.4824 61.7969ZM19.4824 41.2891C24.5711 41.2891 28.7109 45.4289 28.7109 50.5176C28.7109 55.6063 24.5711 59.7461 19.4824 59.7461C14.3937 59.7461 10.2539 55.6063 10.2539 50.5176C10.2539 45.4289 14.3937 41.2891 19.4824 41.2891Z" fill="black"/>
<path d="M19.4824 57.6953C23.4403 57.6953 26.6602 54.4754 26.6602 50.5176C26.6602 46.5597 23.4403 43.3398 19.4824 43.3398C15.5246 43.3398 12.3047 46.5597 12.3047 50.5176C12.3047 54.4754 15.5246 57.6953 19.4824 57.6953ZM19.4824 45.3906C22.3095 45.3906 24.6094 47.6905 24.6094 50.5176C24.6094 53.3446 22.3095 55.6445 19.4824 55.6445C16.6554 55.6445 14.3555 53.3446 14.3555 50.5176C14.3555 47.6905 16.6554 45.3906 19.4824 45.3906Z" fill="black"/>
<path d="M19.4824 35.1367C16.1313 35.1367 12.9459 36.1959 10.2706 38.1995C9.81736 38.539 9.72508 39.1817 10.0646 39.6349C10.404 40.0881 11.0466 40.1805 11.5 39.8409C13.8178 38.105 16.578 37.1875 19.4824 37.1875C26.8327 37.1875 32.8125 43.1673 32.8125 50.5176C32.8125 57.8679 26.8327 63.8477 19.4824 63.8477C12.1321 63.8477 6.15234 57.8679 6.15234 50.5176C6.15234 47.6131 7.06986 44.8529 8.80578 42.5351C9.14525 42.0819 9.05311 41.4392 8.59975 41.0997C8.14639 40.7601 7.50381 40.8524 7.16434 41.3057C5.16072 43.9811 4.10156 47.1665 4.10156 50.5176C4.10156 58.9987 11.0013 65.8984 19.4824 65.8984C27.9635 65.8984 34.8633 58.9987 34.8633 50.5176C34.8633 42.0365 27.9635 35.1367 19.4824 35.1367Z" fill="#C67934"/>
</svg>
