<svg width="36" height="41" viewBox="0 0 36 41" fill="none" xmlns="http://www.w3.org/2000/svg">
<path d="M34.437 6.96108C28.9335 5.44133 23.3976 3.07494 18.4279 0.117808C18.1639 -0.0392692 17.8363 -0.0392692 17.5724 0.117808C12.4593 3.1599 7.2226 5.39826 1.56285 6.96108C1.19722 7.06194 0.943787 7.39688 0.943787 7.77898V16.4435C0.943787 25.366 5.02808 31.2721 8.45447 34.6554C12.1432 38.2981 16.4401 40.3125 18.0002 40.3125C19.5601 40.3125 23.8569 38.2981 27.5457 34.6554C30.972 31.2721 35.0561 25.3661 35.0561 16.4435V7.7789C35.0561 7.39688 34.8026 7.06194 34.437 6.96108ZM33.3733 16.4434C33.3733 24.777 29.5638 30.288 26.3679 33.4439C22.7405 37.026 18.8621 38.6164 18.0002 38.6164C17.1382 38.6164 13.2596 37.026 9.63213 33.4439C6.43628 30.288 2.62667 24.777 2.62667 16.4434V8.42264C8.03901 6.87392 13.0795 4.71256 18.0003 1.83061C22.7983 4.63611 28.0902 6.90494 33.3733 8.42232V16.4434Z" fill="black"/>
<path d="M10.542 8.32772C10.3717 7.89192 9.88316 7.67784 9.45066 7.84956C7.94754 8.44645 6.40473 8.99586 4.86512 9.48261C4.51426 9.59362 4.27551 9.92116 4.27551 10.2917V13.5664C4.27551 14.0347 4.65231 14.4143 5.11692 14.4143C5.58153 14.4143 5.95832 14.0347 5.95832 13.5664V10.9114C7.33949 10.461 8.71918 9.96289 10.0675 9.42741C10.5 9.25585 10.7124 8.76352 10.542 8.32772Z" fill="black"/>
<path d="M12.1404 8.48859C12.2532 8.48859 12.3678 8.46568 12.4778 8.41734L12.4932 8.41057C12.9189 8.22255 13.1107 7.72313 12.9241 7.29426C12.7374 6.86523 12.239 6.67115 11.8138 6.85901L11.8002 6.86492C11.3743 7.05239 11.1819 7.55141 11.3679 7.98051C11.506 8.29908 11.8157 8.48859 12.1404 8.48859Z" fill="black"/>
<path d="M28.0251 27.3435C27.6362 27.0874 27.1148 27.1975 26.8604 27.5895C26.167 28.6591 25.3536 29.6833 24.4423 30.6334C23.693 31.4146 22.8809 32.1427 22.0288 32.7974C21.6594 33.0813 21.5883 33.6134 21.8699 33.9859C22.0356 34.2047 22.2862 34.3198 22.5396 34.3198C22.7176 34.3198 22.8969 34.2632 23.0492 34.1461C23.9684 33.4397 24.8441 32.6545 25.6521 31.8122C26.6373 30.7852 27.5178 29.6766 28.2692 28.5172C28.5235 28.1251 28.4141 27.5996 28.0251 27.3435Z" fill="black"/>
<path d="M20.0748 34.1273L20.0265 34.1559C19.6244 34.3907 19.487 34.9094 19.7198 35.3146C19.8758 35.5863 20.1582 35.7379 20.4487 35.7379C20.5917 35.7379 20.7369 35.7011 20.8694 35.6236L20.9251 35.5906C21.3261 35.3539 21.4608 34.8345 21.226 34.4303C20.991 34.0263 20.4755 33.8908 20.0748 34.1273Z" fill="black"/>
<path d="M12.2647 18.4255C11.7481 17.9048 11.061 17.6182 10.3302 17.6182C9.59941 17.6182 8.91222 17.9048 8.39535 18.4255C7.32871 19.5007 7.32871 21.2502 8.39535 22.3253L13.3638 27.3324C13.8805 27.853 14.5676 28.1397 15.2985 28.1397C16.0293 28.1397 16.7164 27.853 17.2332 27.3323L27.6052 16.8792C28.6717 15.8038 28.6717 14.0545 27.605 12.9797C27.0883 12.459 26.4012 12.1724 25.6702 12.1724C24.9394 12.1724 24.2523 12.459 23.7355 12.9797L15.2984 21.4827L12.2647 18.4255ZM24.9255 14.179C25.1243 13.9786 25.3889 13.8683 25.6703 13.8683C25.9519 13.8683 26.2163 13.9786 26.4152 14.179C26.8258 14.5928 26.8258 15.2663 26.4151 15.6802L16.0433 26.1331C15.8445 26.3334 15.5799 26.4437 15.2985 26.4437C15.0171 26.4437 14.7524 26.3334 14.5535 26.1331L9.58527 21.1261C9.17456 20.7122 9.17456 20.0387 9.58511 19.625C9.78401 19.4246 10.0486 19.3141 10.3301 19.3141C10.6116 19.3141 10.876 19.4244 11.0749 19.6248L14.7034 23.2817C14.8613 23.4407 15.0752 23.5301 15.2984 23.5301C15.5216 23.5301 15.7355 23.4408 15.8932 23.2817L24.9255 14.179Z" fill="#C67934"/>
</svg>
