<svg width="50" height="50" viewBox="0 0 50 50" fill="none" xmlns="http://www.w3.org/2000/svg">
<g clip-path="url(#clip0)">
<path d="M31.6659 0C31.206 0 30.8326 0.37334 30.8326 0.833301C30.8326 1.29326 31.206 1.6666 31.6659 1.6666C40.856 1.6666 48.3326 9.14326 48.3326 18.3333C48.3326 18.7933 48.706 19.1666 49.1659 19.1666C49.6268 19.1666 49.9992 18.7933 49.9992 18.3333C49.9992 8.22422 41.7751 0 31.6659 0Z" fill="#C67934"/>
<path d="M31.6659 5C31.206 5 30.8326 5.37334 30.8326 5.8333C30.8326 6.29326 31.206 6.6666 31.6659 6.6666C38.0992 6.6666 43.3326 11.8999 43.3326 18.3333C43.3326 18.7933 43.706 19.1666 44.1659 19.1666C44.6268 19.1666 44.9992 18.7933 44.9992 18.3333C44.9992 10.9817 39.0184 5 31.6659 5Z" fill="#C67934"/>
<path d="M31.6659 10C31.206 10 30.8326 10.3733 30.8326 10.8333C30.8326 11.2933 31.206 11.6666 31.6659 11.6666C35.3418 11.6666 38.3326 14.6574 38.3326 18.3333C38.3326 18.7933 38.706 19.1666 39.1659 19.1666C39.6268 19.1666 39.9992 18.7933 39.9992 18.3333C39.9992 13.7384 36.2609 10 31.6659 10Z" fill="#C67934"/>
<path d="M45.0956 31.2704C42.8281 30.9721 40.5922 30.4154 38.4505 29.6179C36.3764 28.8403 34.0197 29.342 32.4414 30.8995L29.8072 33.5278C24.2839 30.2712 19.6697 25.6662 16.4056 20.1537L19.0414 17.5237C20.5997 15.9513 21.103 13.5971 20.3239 11.5279C19.5248 9.38967 18.9673 7.15882 18.6673 4.88792C18.2681 2.07289 15.8306 -0.011286 12.9815 -0.000446193H5.69065C5.52063 -0.000446193 5.35061 0.00785457 5.18235 0.0228936C3.6681 0.159612 2.2973 0.877091 1.32308 2.04213C0.348964 3.20795 -0.112754 4.68294 0.0256245 6.20872C0.833142 13.7987 3.45814 21.1962 7.61233 27.5962C11.384 33.5195 16.5148 38.6403 22.4439 42.4004C28.8323 46.5353 36.2097 49.1545 43.7956 49.977C43.9672 49.992 44.1397 49.9995 44.313 49.9995C44.318 49.9995 44.323 49.9995 44.3289 49.9995C47.4689 49.9861 50.0121 47.4261 49.9996 44.2953V37.0295C50.0656 34.1487 47.9622 31.6737 45.0956 31.2704ZM48.333 36.9995C48.333 37.0061 48.333 37.0136 48.333 37.0203V44.2995C48.3413 46.5145 46.5422 48.3245 44.3231 48.3336C44.1931 48.3287 44.0681 48.3287 43.9581 48.3186C36.6465 47.5252 29.5197 44.9953 23.3423 40.9969C17.6123 37.3628 12.659 32.4194 9.01399 26.6944C4.99808 20.5079 2.46312 13.3629 1.68392 6.04544C1.58724 4.97708 1.91312 3.93548 2.60228 3.11127C3.29144 2.28705 4.26058 1.77963 5.33225 1.68295C5.4514 1.67211 5.57063 1.66625 5.69055 1.66625H12.9889C13.0023 1.66625 13.0155 1.66625 13.0289 1.66625C15.0256 1.66625 16.7364 3.14545 17.0155 5.1137C17.3314 7.5012 17.9189 9.85618 18.763 12.1137C19.3139 13.577 18.958 15.2403 17.8605 16.3479L14.7738 19.4278C14.5071 19.6937 14.4522 20.1037 14.638 20.4304C18.1696 26.6304 23.3205 31.7704 29.5313 35.2945C29.858 35.4803 30.2663 35.4237 30.5313 35.1595L33.6146 32.0829C34.7288 30.9838 36.3979 30.6296 37.8663 31.1796C40.1262 32.0213 42.4854 32.6088 44.8696 32.9221C46.8947 33.207 48.3838 34.9595 48.333 36.9995Z" fill="white"/>
<path d="M12.5001 3.3335H5.68927C5.61925 3.3335 5.55011 3.33682 5.48097 3.34346C4.63185 3.42012 4.11261 3.90176 3.87931 4.18096C3.69181 4.40508 3.26349 5.0168 3.33849 5.85684C3.65353 8.8127 4.22345 11.6885 5.03429 14.4052C5.14259 14.766 5.47345 15.0002 5.83263 15.0002C5.91183 15.0002 5.99181 14.9894 6.07179 14.9652C6.51261 14.8336 6.76349 14.3694 6.63175 13.9286C5.85011 11.3103 5.30011 8.53525 4.99757 5.69443C4.97843 5.48281 5.11593 5.30029 5.15841 5.24863C5.22677 5.16699 5.37921 5.02617 5.68927 5.00029H12.4985C12.4993 5.00029 12.4993 5.00029 12.4993 5.00029C12.9593 5.00029 13.3326 4.62783 13.3326 4.16777C13.3334 3.70762 12.9601 3.3335 12.5001 3.3335Z" fill="white"/>
<path d="M45.8325 36.6667C45.3726 36.6667 44.9992 37.0401 44.9992 37.5L44.9983 44.2992C44.9992 44.4867 44.9275 44.6633 44.7967 44.795C44.6658 44.9266 44.4925 44.9992 44.3275 45L44.2509 44.9983C41.4034 44.6891 38.6518 44.1408 36.0726 43.3683C35.6334 43.2358 35.1676 43.4867 35.0351 43.9275C34.9025 44.3683 35.1534 44.8325 35.5942 44.965C38.2701 45.7667 41.1226 46.335 44.0859 46.6567C44.1543 46.6633 44.2935 46.6667 44.3135 46.6667C44.9443 46.6641 45.5359 46.4167 45.9802 45.9692C46.4243 45.5209 46.6677 44.9258 46.6651 44.2959L46.6659 37.5C46.6659 37.0401 46.2926 36.6667 45.8325 36.6667Z" fill="white"/>
</g>
<defs>
<clipPath id="clip0">
<rect width="50" height="50" fill="white"/>
</clipPath>
</defs>
</svg>
