<svg width="40" height="40" viewBox="0 0 40 40" fill="none" xmlns="http://www.w3.org/2000/svg">
<path d="M0.980637 24.9273C1.20001 25.0793 1.43144 25.2131 1.67264 25.3273C1.9613 25.4747 2.44397 25.7213 2.47797 25.8947C2.5204 26.1223 2.49322 26.3574 2.39997 26.5693C2.30064 26.7827 2.19597 26.966 2.10664 27.1247C1.86197 27.5553 1.45397 28.2773 2.06997 28.7813C2.21397 28.9147 2.46264 29.1073 2.68997 29.2813C2.52291 29.573 2.44721 29.9081 2.47264 30.2433C2.50766 30.5057 2.64921 30.742 2.86397 30.8967C3.01397 31.0033 3.17464 31.0967 3.33064 31.1867C3.72264 31.41 3.87597 31.514 3.93064 31.72C3.96649 31.9912 3.94144 32.267 3.8573 32.5273C3.81797 32.7007 3.77997 32.8733 3.7553 33.0507C3.68923 33.6587 3.7664 34.2738 3.98064 34.8467C4.27984 35.9083 5.23985 36.648 6.34264 36.6667C6.52566 36.666 6.70815 36.6468 6.88731 36.6093C8.79185 36.158 10.6686 35.5964 12.508 34.9273C14.0093 35.8087 14.9586 38.4887 15.206 39.4947C15.2801 39.7918 15.5471 40.0002 15.8533 40L32.5866 39.9533C32.7987 39.9529 32.9979 39.8516 33.1232 39.6806C33.2485 39.5095 33.2849 39.289 33.2213 39.0867C33.0564 38.635 32.8291 38.2086 32.546 37.82C32.3858 37.5901 32.2415 37.3495 32.114 37.1C31.8125 36.4886 31.5608 35.8539 31.3613 35.202C30.981 33.9136 30.7171 32.5936 30.5726 31.258C30.3386 29.2635 30.641 27.2426 31.4486 25.404C31.9415 24.3843 32.549 23.4241 33.2593 22.542C33.6593 22.002 34.0746 21.4427 34.4473 20.8553C35.0881 19.86 35.5526 18.7617 35.8206 17.6087C35.8973 17.2527 35.6743 16.9011 35.3196 16.8188C34.9649 16.7365 34.6098 16.954 34.522 17.3073C34.2876 18.3137 33.8817 19.2721 33.322 20.1407C32.976 20.688 32.576 21.2267 32.1886 21.748C31.4172 22.7106 30.7589 23.7585 30.2266 24.8713C29.3238 26.9276 28.9864 29.1877 29.2493 31.418C29.403 32.8345 29.6844 34.2342 30.09 35.6C30.309 36.3172 30.5857 37.0155 30.9173 37.688C31.0693 37.9885 31.2419 38.2781 31.434 38.5547L31.4786 38.6213L16.3573 38.6667C15.9142 37.0853 15.1107 35.6281 14.01 34.4093L14.61 34.2007C15.058 34.044 15.396 33.926 15.5706 33.8673C18.4253 32.9573 19.8533 31.6573 19.814 30.0007C19.8121 29.8237 19.7387 29.655 19.6105 29.5331C19.4823 29.4111 19.3101 29.3463 19.1333 29.3533C18.7653 29.3621 18.4741 29.6674 18.4826 30.0353C18.4986 30.7173 17.9366 31.716 15.1653 32.5987C14.984 32.6567 14.632 32.7787 14.1713 32.9407C13.676 33.1133 13.048 33.3333 12.3546 33.5687H12.35C10.4751 34.2561 8.56216 34.8349 6.62064 35.302C5.99968 35.4187 5.39607 35.0287 5.2473 34.4147C5.10393 34.0384 5.04763 33.6345 5.08264 33.2333C5.10197 33.1 5.1333 32.96 5.16397 32.824C5.30585 32.3587 5.32877 31.8652 5.23064 31.3887C5.03703 30.7782 4.58802 30.2817 3.99997 30.028L3.85664 29.946C3.9285 29.8 4.0147 29.6616 4.11397 29.5327C4.22567 29.3908 4.27504 29.2097 4.25079 29.0307C4.22654 28.8518 4.13074 28.6904 3.9853 28.5833C3.82597 28.466 3.45197 28.1833 3.17197 27.9607C3.20397 27.9027 3.23864 27.8387 3.27264 27.7813C3.3773 27.5973 3.4973 27.3813 3.6133 27.1367C3.82458 26.6697 3.88651 26.1488 3.79064 25.6453C3.6313 24.832 2.85197 24.4333 2.2833 24.1427C2.09172 24.0515 1.90798 23.9447 1.73397 23.8233C1.5911 23.7277 1.45722 23.6192 1.33397 23.4993C1.33397 23.398 1.44264 23.1533 1.94997 22.5353C3.14292 20.9983 4.16557 19.3363 4.99997 17.5787C5.15661 17.3031 5.24485 16.994 5.2573 16.6773C5.18748 16.0066 4.83085 15.3988 4.2793 15.0107C4.0093 14.7627 3.75397 14.5293 3.7253 14.3327C3.73141 14.1693 3.76805 14.0085 3.8333 13.8587C3.94197 13.5733 4.06797 13.2933 4.1933 13.0127C4.47443 12.4336 4.69773 11.8282 4.85997 11.2053C5.01274 10.4582 5.21315 9.72157 5.45997 9C5.98544 7.54948 6.79911 6.22034 7.85197 5.09267C9.12664 3.74267 11.1333 2.788 13.8266 2.25334C15.8868 1.80103 17.9773 1.49979 20.0813 1.352C20.7892 1.31552 21.4989 1.33067 22.2046 1.39734C22.4423 1.41949 22.6738 1.31314 22.8118 1.11836C22.9499 0.923585 22.9735 0.669962 22.8738 0.453032C22.7742 0.236102 22.5663 0.088822 22.3286 0.0666715C21.5583 -0.00391422 20.7839 -0.0192868 20.0113 0.0206715C17.8423 0.171175 15.6871 0.480448 13.5633 0.946005C10.5573 1.546 8.37264 2.6 6.88197 4.176C5.70485 5.43436 4.79498 6.91822 4.2073 8.538C3.93713 9.32625 3.7178 10.131 3.55064 10.9473C3.40815 11.4709 3.21664 11.9798 2.97864 12.4673C2.8453 12.7707 2.70797 13.074 2.58797 13.3893C2.43625 13.7418 2.37396 14.1263 2.40664 14.5087C2.54454 15.1037 2.89042 15.63 3.38197 15.9927C3.70864 16.292 3.92397 16.5027 3.92664 16.6867C3.90237 16.7879 3.86423 16.8852 3.8133 16.976C3.01513 18.6571 2.03697 20.2466 0.895971 21.7167C0.413304 22.3053 -0.0933629 22.9913 0.0126372 23.678C0.1546 24.2075 0.503408 24.6576 0.980637 24.9273Z" fill="black"/>
<path d="M7.95865 9.92585C8.36012 8.81283 8.98235 7.79241 9.78798 6.92585C10.6767 5.98518 12.2133 5.29251 14.356 4.86651C14.7172 4.7949 14.9519 4.44404 14.8803 4.08285C14.8087 3.72165 14.4578 3.4869 14.0967 3.55851C11.6773 4.03985 9.90198 4.86385 8.81932 6.00785C7.88903 7.00632 7.17059 8.18286 6.70732 9.46651C6.48289 10.1325 6.3001 10.8118 6.15998 11.5005L7.46198 11.7892C7.58977 11.1586 7.75563 10.5364 7.95865 9.92585Z" fill="black"/>
<path d="M21.906 3.73334L21.506 5.72801C21.1204 5.85463 20.7451 6.01064 20.3833 6.19467L18.6907 5.06134C18.1618 4.71498 17.4624 4.78765 17.016 5.23534L15.9093 6.34134C15.4528 6.78951 15.379 7.49873 15.7333 8.03134L16.8613 9.71601C16.6773 10.0777 16.5213 10.4531 16.3947 10.8387L14.4027 11.2387C13.7802 11.3644 13.3328 11.9117 13.3333 12.5467V14.12C13.3329 14.754 13.7789 15.3006 14.4 15.4273L16.3947 15.8273C16.5213 16.2129 16.6773 16.5883 16.8613 16.95L15.728 18.6427C15.3816 19.1716 15.4543 19.871 15.902 20.3173L17.0087 21.424C17.4576 21.8784 18.1653 21.9519 18.698 21.5993L20.3827 20.4713C20.7444 20.6554 21.1197 20.8114 21.5053 20.938L21.9053 22.93C22.0308 23.5527 22.5781 24.0005 23.2133 24H24.7867C25.4206 24.0005 25.9672 23.5545 26.094 22.9333L26.494 20.9387C26.8796 20.8121 27.2549 20.656 27.6167 20.472L29.3093 21.6053C29.8382 21.9517 30.5376 21.879 30.984 21.4313L32.09 20.3253C32.5465 19.8772 32.6203 19.168 32.266 18.6353L31.138 16.9507C31.322 16.5889 31.478 16.2136 31.6047 15.828L33.5967 15.428C33.9923 15.348 34.3302 15.0924 34.5147 14.7333L35.5193 15.4067C35.7132 15.5288 35.9376 15.5937 36.1667 15.594C36.4863 15.5941 36.7927 15.4667 37.018 15.24L37.9047 14.3533C38.3079 13.9481 38.3727 13.316 38.06 12.8373L37.2 11.5507C37.3247 11.3 37.4325 11.0411 37.5227 10.776L39.0313 10.4753C39.5958 10.3644 40.0022 9.86859 40 9.29334V8.04001C40.002 7.46691 39.5985 6.97237 39.0367 6.85934L37.5213 6.55734C37.4319 6.29213 37.3246 6.03331 37.2 5.78267L38.0733 4.48067C38.376 4.00381 38.3067 3.38073 37.9067 2.98201L37.02 2.09534C36.6148 1.69187 35.9826 1.62709 35.504 1.94001L34.2173 2.80001C33.9666 2.67526 33.7078 2.56747 33.4427 2.47734L33.1413 0.968674C33.0305 0.404459 32.535 -0.00183301 31.96 7.56806e-06H30.7067C30.1336 -0.00201481 29.639 0.401493 29.526 0.963341L29.224 2.47867C28.9587 2.56874 28.6999 2.67677 28.4493 2.80201L27.1473 1.92867C26.6703 1.62657 26.0476 1.69583 25.6487 2.09534L25.0487 2.69534C24.9625 2.67736 24.8747 2.66776 24.7867 2.66667H23.2133C22.5794 2.66623 22.0328 3.11221 21.906 3.73334ZM32.098 6.34667L31.7867 6.03534C32.9422 6.19003 33.8613 7.08105 34.0517 8.23123C34.2422 9.38141 33.6593 10.5211 32.6153 11.04L31.6033 10.84C31.4767 10.4544 31.3207 10.0791 31.1367 9.71734L32.27 8.02467C32.6176 7.49597 32.5457 6.79576 32.098 6.34867V6.34667ZM26.518 3.10934L28.042 4.13334C28.2557 4.27665 28.5328 4.28418 28.754 4.15267C29.1356 3.92807 29.5461 3.7565 29.974 3.64267C30.2185 3.57664 30.4045 3.37774 30.454 3.12934L30.812 1.33334H31.8547L32.2127 3.13334C32.2622 3.38174 32.4481 3.58064 32.6927 3.64667C33.1206 3.7605 33.531 3.93207 33.9127 4.15667C34.1346 4.28698 34.4117 4.2779 34.6247 4.13334L36.1487 3.11067L36.8887 3.85067L35.8667 5.37534C35.7234 5.58906 35.7158 5.86616 35.8473 6.08734C36.0719 6.46897 36.2435 6.87941 36.3573 7.30734C36.4234 7.55186 36.6223 7.73785 36.8707 7.78734L38.6707 8.14534V9.18801L36.874 9.54601C36.6256 9.5955 36.4267 9.78148 36.3607 10.026C36.2468 10.4539 36.0753 10.8644 35.8507 11.246C35.7192 11.4672 35.7267 11.7443 35.87 11.958L36.8927 13.482L36.1527 14.222L34.6667 13.228V12.5467C34.6667 12.1563 34.4963 11.7855 34.2 11.5313C35.3737 10.4007 35.7419 8.66993 35.1302 7.15939C34.5185 5.64884 33.0497 4.66204 31.42 4.66667C31.0169 4.66921 30.6167 4.73489 30.234 4.86134C29.9083 4.81388 29.5764 4.88689 29.3007 5.06667L27.6173 6.19467C27.2556 6.01064 26.8803 5.85463 26.4947 5.72801L26.0947 3.73601C26.0829 3.68259 26.0675 3.63003 26.0487 3.57867L26.518 3.10934ZM22.7333 6.38467L23.2133 4.00001H24.7867L25.266 6.38667C25.3158 6.63439 25.5014 6.83264 25.7453 6.89867C26.2961 7.04716 26.8253 7.26679 27.3193 7.55201C27.5395 7.67971 27.8132 7.67092 28.0247 7.52934L30.042 6.18001L31.1593 7.29134L29.806 9.31067C29.6644 9.52218 29.6556 9.79585 29.7833 10.016C30.0685 10.5101 30.2882 11.0392 30.4367 11.59C30.5027 11.8339 30.701 12.0195 30.9487 12.0693L33.3333 12.546V14.12L30.9467 14.5993C30.6989 14.6492 30.5007 14.8348 30.4347 15.0787C30.2862 15.6295 30.0665 16.1586 29.7813 16.6527C29.6536 16.8728 29.6624 17.1465 29.804 17.358L31.1533 19.3753L30.042 20.4927L28.0227 19.1393C27.8112 18.9978 27.5375 18.989 27.3173 19.1167C26.8233 19.4019 26.2941 19.6215 25.7433 19.77C25.4994 19.836 25.3138 20.0343 25.264 20.282L24.7867 22.6667H23.2133L22.734 20.28C22.6842 20.0323 22.4986 19.834 22.2547 19.768C21.7038 19.6195 21.1747 19.3999 20.6807 19.1147C20.4605 18.987 20.1868 18.9958 19.9753 19.1373L17.958 20.4867L16.8407 19.3753L18.194 17.356C18.3356 17.1445 18.3444 16.8708 18.2167 16.6507C17.9314 16.1566 17.7118 15.6275 17.5633 15.0767C17.4973 14.8328 17.299 14.6472 17.0513 14.5973L14.6667 14.12V12.5467L17.0533 12.0673C17.301 12.0175 17.4993 11.8319 17.5653 11.588C17.7138 11.0372 17.9334 10.5081 18.2187 10.014C18.3464 9.79385 18.3376 9.52018 18.196 9.30867L16.8467 7.29134L17.958 6.17401L19.9773 7.52734C20.1888 7.66892 20.4625 7.67771 20.6827 7.55001C21.1767 7.26479 21.7058 7.04516 22.2567 6.89667C22.4995 6.82977 22.6839 6.63169 22.7333 6.38467Z" fill="#C67934"/>
<path d="M24 18.0001C26.5773 18.0001 28.6666 15.9107 28.6666 13.3334C28.6666 10.7561 26.5773 8.66675 24 8.66675C21.4227 8.66675 19.3333 10.7561 19.3333 13.3334C19.3363 15.9095 21.4239 17.9971 24 18.0001ZM24 10.0001C25.8409 10.0001 27.3333 11.4925 27.3333 13.3334C27.3333 15.1744 25.8409 16.6667 24 16.6667C22.159 16.6667 20.6667 15.1744 20.6667 13.3334C20.6689 11.4934 22.1599 10.0023 24 10.0001Z" fill="#C67934"/>
<path d="M24 13.9998C24.3682 13.9998 24.6667 13.7014 24.6667 13.3332C24.6667 12.965 24.3682 12.6665 24 12.6665C23.6318 12.6665 23.3333 12.965 23.3333 13.3332C23.3333 13.7014 23.6318 13.9998 24 13.9998Z" fill="black"/>
<path d="M5.99998 14.6668C6.36817 14.6668 6.66665 14.3684 6.66665 14.0002C6.66665 13.632 6.36817 13.3335 5.99998 13.3335C5.63179 13.3335 5.33332 13.632 5.33332 14.0002C5.33332 14.3684 5.63179 14.6668 5.99998 14.6668Z" fill="black"/>
</svg>
